<?xml version="1.0" standalone="no"?><!DOCTYPE svg PUBLIC "-//W3C//DTD SVG 1.1//EN" "http://www.w3.org/Graphics/SVG/1.1/DTD/svg11.dtd"><svg xmlns:xlink="http://www.w3.org/1999/xlink" version="1.1" style="font-family:'lucida grande', 'lucida sans unicode', arial, helvetica, sans-serif;font-size:12px;" xmlns="http://www.w3.org/2000/svg" width="600" height="400"><desc>Created with Highcharts 4.2.0</desc><defs><clipPath id="highcharts-34"><rect x="0" y="0" width="580" height="296"></rect></clipPath></defs><g class="highcharts-series-group" ><g class="highcharts-series highcharts-series-0"  transform="translate(10,36) scale(1 1)"><path fill="#50B432" d="M 289.97596656196396 41.00000244748368 A 118 118 0 0 1 308.0765078789899 42.39279669376846 L 290 159 A 0 0 0 0 0 290 159 Z" stroke="#FFFFFF" stroke-width="1" stroke-linejoin="round" transform="translate(0,0)"></path><path fill="#ED561B" d="M 308.1931060246084 42.41093150223149 A 118 118 0 0 1 317.10768898175854 44.15587434235809 L 290 159 A 0 0 0 0 0 290 159 Z" stroke="#FFFFFF" stroke-width="1" stroke-linejoin="round" transform="translate(0,0)"></path><path fill="#DDDF00" d="M 317.22251953443214 44.18303944887994 A 118 118 0 0 1 325.861629845052 46.581391643302766 L 290 159 A 0 0 0 0 0 290 159 Z" stroke="#FFFFFF" stroke-width="1" stroke-linejoin="round" transform="translate(0,0)"></path><path fill="#24CBE5" d="M 325.97403050385884 46.61730947647038 A 118 118 0 0 1 334.51235680865057 49.71756732512138 L 290 159 A 0 0 0 0 0 290 159 Z" stroke="#FFFFFF" stroke-width="1" stroke-linejoin="round" transform="translate(0,0)"></path><path fill="#64E572" d="M 334.6216169669351 49.762134315723074 A 118 118 0 0 1 369.37375401611814 246.31441561041777 L 290 159 A 0 0 0 0 0 290 159 Z" stroke="#FFFFFF" stroke-width="1" stroke-linejoin="round" transform="translate(0,0)"></path><path fill="#FF9655" d="M 369.2863999281864 246.39374569400078 A 118 118 0 0 1 175.70953305130212 129.64545751253146 L 290 159 A 0 0 0 0 0 290 159 Z" stroke="#FFFFFF" stroke-width="1" stroke-linejoin="round" transform="translate(0,0)"></path><path fill="#FFF263" d="M 175.73894473412588 129.5311817419012 A 118 118 0 0 1 178.30624665194517 120.94076376194748 L 290 159 A 0 0 0 0 0 290 159 Z" stroke="#FFFFFF" stroke-width="1" stroke-linejoin="round" transform="translate(0,0)"></path><path fill="#6AF9C4" d="M 178.34436172871204 120.8290890568316 A 118 118 0 0 1 289.83610036730755 41.00011382670573 L 290 159 A 0 0 0 0 0 290 159 Z" stroke="#FFFFFF" stroke-width="1" stroke-linejoin="round" transform="translate(0,0)"></path></g><g class="highcharts-markers highcharts-series-0"  transform="translate(10,36) scale(1 1)"></g></g><text x="300" text-anchor="middle" class="highcharts-title"  style="color:#000000;font-size:18px;font-family:'arial', sans-serif;fill:#000000;width:536px;" y="17"><tspan>Happy birthday wishes per medium</tspan></text><g class="highcharts-data-labels highcharts-series-0"  visibility="visible" transform="translate(10,36) scale(1 1)" opacity="1"><path fill="none" d="M 306.46887825944583 11 C 301.46887825944583 11 300.84893889407033 19.420988236509118 299.9965222666791 30.38791058935483 L 299.1441056392879 41.354832942200545" stroke="#50B432" stroke-width="1"></path><path fill="none" d="M 370.9934207678533 32 C 365.9934207678533 32 316.9797164767326 21.624256512166156 314.8598816107036 32.418064929067384 L 312.7400467446746 43.21187334596861" stroke="#ED561B" stroke-width="1"></path><path fill="none" d="M 398.28601066940286 53 C 393.28601066940286 53 327.54416578648926 24.12807699377676 324.59426704612224 34.72515665855144 L 321.6443683057552 45.32223632332612" stroke="#DDDF00" stroke-width="1"></path><path fill="none" d="M 416.15692303785204 74 C 411.15692303785204 74 337.88282006559365 27.44303308997283 334.1205984890113 37.77965191861782 L 330.3583769124289 48.11627074726282" stroke="#24CBE5" stroke-width="1"></path><path fill="none" d="M 440.75154744580675 133.3000697052943 C 435.75154744580675 133.3000697052943 427.87308542170916 134.68925512662975 417.04020013857485 136.599385080966 L 406.20731485544053 138.50951503530223" stroke="#64E572" stroke-width="1"></path><path fill="none" d="M 208.52849306952427 285.71270113047945 C 213.52849306952427 285.71270113047945 217.6620880387392 278.8633659342373 223.3457811214097 269.4455300394044 L 229.02947420408017 260.02769414457146" stroke="#FF9655" stroke-width="1"></path><path fill="none" d="M 143.21755217730765 116.55312155875868 C 148.21755217730765 116.55312155875868 155.8814682758315 118.8475474204474 166.4193529113019 122.00238298026939 L 176.9572375467723 125.15721854009138" stroke="#FFF263" stroke-width="1"></path><path fill="none" d="M 198.93917344937205 38.594293601080814 C 203.93917344937205 38.594293601080814 208.59111001967625 45.102710163184554 214.98752280384454 54.051782936077196 L 221.38393558801283 63.00085570896984" stroke="#6AF9C4" stroke-width="1"></path><g  style="cursor:pointer;" transform="translate(311,1)"><text x="5"  style="font-size:10px;font-weight:bold;font-family:'arial', sans-serif;color:#000000;text-shadow:0 0 6px #ffffff, 0 0 3px #ffffff;fill:#000000;text-rendering:geometricprecision;" y="15"><tspan>Cell phone call</tspan></text></g><g  style="cursor:pointer;" transform="translate(376,22)"><text x="5"  style="font-size:10px;font-weight:bold;font-family:'arial', sans-serif;color:#000000;text-shadow:0 0 6px #ffffff, 0 0 3px #ffffff;fill:#000000;text-rendering:geometricprecision;" y="15"><tspan>Home phone call</tspan></text></g><g  style="cursor:pointer;" transform="translate(403,43)"><text x="5"  style="font-size:10px;font-weight:bold;font-family:'arial', sans-serif;color:#000000;text-shadow:0 0 6px #ffffff, 0 0 3px #ffffff;fill:#000000;text-rendering:geometricprecision;" y="15"><tspan>Skype</tspan></text></g><g  style="cursor:pointer;" transform="translate(421,64)"><text x="5"  style="font-size:10px;font-weight:bold;font-family:'arial', sans-serif;color:#000000;text-shadow:0 0 6px #ffffff, 0 0 3px #ffffff;fill:#000000;text-rendering:geometricprecision;" y="15"><tspan>Whatsapp message</tspan></text></g><g  style="cursor:pointer;" transform="translate(446,123)"><text x="5"  style="font-size:10px;font-weight:bold;font-family:'arial', sans-serif;color:#000000;text-shadow:0 0 6px #ffffff, 0 0 3px #ffffff;fill:#000000;text-rendering:geometricprecision;" y="15"><tspan>Whatsapp group</tspan></text></g><g  style="cursor:pointer;" transform="translate(147,276)"><text x="5"  style="font-size:10px;font-weight:bold;font-family:'arial', sans-serif;color:#000000;text-shadow:0 0 6px #ffffff, 0 0 3px #ffffff;fill:#000000;text-rendering:geometricprecision;" y="15"><tspan>Facebook</tspan></text></g><g  style="cursor:pointer;" transform="translate(27,107)"><text x="5"  style="font-size:10px;font-weight:bold;font-family:'arial', sans-serif;color:#000000;text-shadow:0 0 6px #ffffff, 0 0 3px #ffffff;fill:#000000;text-rendering:geometricprecision;" y="15"><tspan>Facebook Messenger</tspan></text></g><g  style="cursor:pointer;" transform="translate(139,29)"><text x="5"  style="font-size:10px;font-weight:bold;font-family:'arial', sans-serif;color:#000000;text-shadow:0 0 6px #ffffff, 0 0 3px #ffffff;fill:#000000;text-rendering:geometricprecision;" y="15"><tspan>In person</tspan></text></g></g></svg>
